<svg width="32" height="30" viewBox="0 0 32 30" fill="none" xmlns="http://www.w3.org/2000/svg">
<rect width="32" height="29.9961"/>
<path fill-rule="evenodd" clip-rule="evenodd" d="M20.2371 11.2259C20.6868 10.7763 21.4648 10.3741 22.4614 10.1498C23.4444 9.92858 24.5553 9.90076 25.5985 10.1182C26.6406 10.3355 27.5736 10.7877 28.2617 11.4892C28.938 12.1786 29.4331 13.1639 29.5265 14.5647C29.7174 17.4276 28.419 19.301 26.6807 20.1834C24.9015 21.0866 22.5552 21.0061 20.5867 19.6874C19.6174 19.0381 18.8257 18.0968 18.0572 16.9706C17.6802 16.418 17.3205 15.8391 16.9477 15.239L16.9476 15.239L16.9296 15.21C16.5546 14.6063 16.1657 13.9814 15.7527 13.3811C14.9291 12.1842 13.9609 11.0107 12.6688 10.1771C11.3519 9.32731 9.75921 8.86905 7.7617 9.00222C4.87886 9.1944 2.93966 10.5903 1.95057 12.5285C0.987886 14.4149 0.981534 16.7003 1.67682 18.6536C2.37321 20.61 3.82593 22.3704 5.93728 23.0688C7.92579 23.7265 10.2888 23.3749 12.8281 21.7149V22.5C12.8281 23.0523 13.2759 23.5 13.8281 23.5C14.3804 23.5 14.8281 23.0523 14.8281 22.5V19.5C14.8281 19.0112 14.4747 18.594 13.9925 18.5136L10.9925 18.0136C10.4478 17.9228 9.93254 18.2908 9.84174 18.8356C9.75095 19.3804 10.119 19.8956 10.6637 19.9864L11.5813 20.1393C9.48702 21.4642 7.80118 21.5787 6.56532 21.1699C5.17234 20.7092 4.10238 19.5038 3.56101 17.9829C3.01853 16.4589 3.05934 14.7557 3.73201 13.4376C4.37826 12.1712 5.66258 11.1466 7.89473 10.9978C9.48306 10.8919 10.6453 11.2516 11.5845 11.8576C12.5486 12.4797 13.3378 13.3997 14.105 14.5148C14.4874 15.0705 14.8523 15.6563 15.2308 16.2655L15.2586 16.3102L15.2586 16.3102C15.6243 16.8989 16.0036 17.5093 16.4052 18.0978C17.2264 19.3015 18.19 20.4892 19.4736 21.3491C22.0224 23.0564 25.1394 23.2087 27.586 21.9668C30.0736 20.704 31.7636 18.0544 31.5221 14.4317C31.3993 12.5897 30.7245 11.1439 29.6895 10.0887C28.6663 9.04557 27.3466 8.43967 26.0067 8.16033C24.6678 7.88122 23.2676 7.91834 22.0223 8.19858C20.7907 8.47576 19.6235 9.01143 18.8232 9.81135C18.4326 10.2018 18.4324 10.8349 18.8229 11.2256C19.2133 11.6162 19.8465 11.6163 20.2371 11.2259Z" fill="url(#paint0_linear_368_468)"/>
<defs>
<linearGradient id="paint0_linear_368_468" x1="20.5" y1="12" x2="10" y2="25" gradientUnits="userSpaceOnUse">
<stop stop-color="#6A9FFF"/>
<stop offset="0.830269" stop-color="#6AE4FF"/>
</linearGradient>
</defs>
</svg>
