<svg width="54" height="54" viewBox="0 0 54 54" fill="none" xmlns="http://www.w3.org/2000/svg">
<path d="M27 54C41.9117 54 54 41.9117 54 27C54 12.0883 41.9117 0 27 0C12.0883 0 0 12.0883 0 27C0 41.9117 12.0883 54 27 54Z" fill="white"/>
<path d="M36.7473 15C35.4069 15 34.1782 15.7219 33.5173 16.8844L25.1285 31.5H18.875V39H27.2892C28.6201 39 29.8498 38.2846 30.5147 37.1234L38.8883 22.5H45.125V15H36.7473Z" fill="#1A5AFF"/>
<path d="M14.4609 39L8 35.2594L18.5326 16.8844C19.1927 15.7219 20.4197 15 21.7584 15H30.125V22.5H23.8966L14.4609 39Z" fill="#1A5AFF"/>
<path d="M41.375 34.5C43.446 34.5 45.125 32.821 45.125 30.75C45.125 28.679 43.446 27 41.375 27C39.304 27 37.625 28.679 37.625 30.75C37.625 32.821 39.304 34.5 41.375 34.5Z" fill="#1A5AFF"/>
<path d="M8.75 15V22.5C12.8938 22.5 16.25 19.1438 16.25 15H8.75Z" fill="#1A5AFF"/>
</svg>
