<svg width="54" height="54" viewBox="0 0 54 54" fill="none" xmlns="http://www.w3.org/2000/svg">
<circle cx="27" cy="27" r="27" fill="white"/>
<path d="M7.02474 32.0867C7.01856 32.1115 7.01546 32.1362 7.01237 32.1625C7.00773 32.1919 7.00464 32.2197 7.00309 32.2491C7.00309 32.2568 7 32.2645 7 32.2738C7 32.2908 7.00464 32.3063 7.00464 32.3218C7.00619 32.3511 7.00773 32.379 7.01392 32.4083C7.01856 32.4346 7.02474 32.4594 7.03093 32.4841C7.03711 32.5089 7.04484 32.5336 7.05412 32.5583C7.0634 32.5831 7.07422 32.6078 7.08659 32.631C7.09742 32.6542 7.10979 32.6759 7.12371 32.6991C7.13762 32.7207 7.15309 32.7424 7.16855 32.7625C7.18401 32.7841 7.20102 32.8042 7.21958 32.8243C7.23659 32.8429 7.25669 32.8614 7.27525 32.8784C7.29535 32.8954 7.3139 32.9124 7.33555 32.9279C7.35875 32.9449 7.38349 32.9588 7.40823 32.9743C7.42215 32.982 7.43452 32.9929 7.44998 33.0006L26.912 42.7316C26.9197 42.7347 26.9274 42.7362 26.9336 42.7393C26.9445 42.744 26.9537 42.7501 26.9646 42.7548C26.9738 42.7594 26.9847 42.761 26.9955 42.7656C27.0109 42.7718 27.028 42.7764 27.0434 42.7811C27.0589 42.7857 27.0743 42.7904 27.0898 42.7934C27.0991 42.795 27.1068 42.7996 27.1161 42.8012C27.1254 42.8027 27.1346 42.8027 27.1439 42.8043C27.1609 42.8074 27.1779 42.8089 27.1965 42.8105C27.2151 42.812 27.2336 42.8135 27.2506 42.8135C27.2661 42.8135 27.2831 42.8135 27.2986 42.8135C27.3171 42.8135 27.3341 42.812 27.3527 42.8105C27.3697 42.8089 27.3867 42.8058 27.4053 42.8043C27.4145 42.8027 27.4238 42.8027 27.4331 42.8012C27.4424 42.7996 27.4501 42.7965 27.4594 42.7934C27.4748 42.7904 27.4903 42.7857 27.5058 42.7811C27.5212 42.7764 27.5382 42.7702 27.5537 42.7656C27.5645 42.7625 27.5738 42.7594 27.5846 42.7548C27.5955 42.7501 27.6047 42.744 27.6156 42.7393C27.6233 42.7362 27.631 42.7347 27.6372 42.7316L47.0992 33.0006C47.1147 32.9929 47.1255 32.982 47.141 32.9743C47.1657 32.9604 47.1904 32.9449 47.2136 32.9279C47.2353 32.9124 47.2538 32.8954 47.2739 32.8784C47.294 32.8614 47.3126 32.8429 47.3296 32.8243C47.3482 32.8042 47.3636 32.7841 47.3806 32.7625C47.3961 32.7424 47.4116 32.7207 47.4255 32.6991C47.4394 32.6774 47.4502 32.6542 47.4626 32.631C47.475 32.6078 47.4858 32.5831 47.4951 32.5583C47.5043 32.5336 47.5121 32.5089 47.5183 32.4841C47.5244 32.4594 47.5306 32.4346 47.5353 32.4083C47.5399 32.379 47.5415 32.3511 47.5445 32.3218C47.5461 32.3063 47.5492 32.2908 47.5492 32.2738C47.5492 32.2661 47.5476 32.2584 47.5461 32.2491C47.5445 32.2197 47.5415 32.1919 47.5368 32.1625C47.5337 32.1377 47.5306 32.1115 47.5244 32.0867C47.5183 32.0635 47.5105 32.0388 47.5028 32.0156C47.4935 31.9878 47.4842 31.9584 47.4703 31.9321C47.4672 31.9243 47.4657 31.9166 47.4626 31.9104L37.73 12.4484C37.7254 12.4392 37.7177 12.433 37.713 12.4252C37.6852 12.3742 37.6527 12.3263 37.6141 12.283C37.6048 12.2722 37.5971 12.2613 37.5878 12.2521C37.5429 12.2057 37.4919 12.1639 37.4362 12.1283C37.4223 12.1191 37.4084 12.1129 37.3945 12.1051C37.3496 12.0804 37.3017 12.0603 37.2522 12.0433C37.2352 12.0371 37.2182 12.0325 37.2012 12.0278C37.1393 12.0124 37.076 12.0015 37.011 12.0015C37.0079 12.0015 37.0064 12 37.0048 12C36.9971 12 36.9878 12.0031 36.9801 12.0031C36.929 12.0046 36.8796 12.0093 36.8316 12.0201C36.8162 12.0232 36.8007 12.0309 36.7852 12.034C36.7435 12.0464 36.7033 12.0603 36.6646 12.0773C36.6584 12.0804 36.6507 12.082 36.6445 12.085C36.6291 12.0928 36.6182 12.1036 36.6028 12.1113C36.578 12.1253 36.5533 12.1407 36.5301 12.1577C36.5085 12.1732 36.4899 12.1902 36.4698 12.2072C36.4497 12.2242 36.4311 12.2428 36.4141 12.2613C36.3956 12.2814 36.3801 12.3015 36.3631 12.3232C36.3476 12.3433 36.3322 12.3649 36.3183 12.3866C36.3043 12.4082 36.2935 12.4314 36.2811 12.4546C36.2688 12.4778 36.2579 12.5026 36.2487 12.5273C36.2394 12.552 36.2332 12.5768 36.2255 12.6015C36.2193 12.6263 36.2131 12.651 36.2085 12.6773C36.2038 12.7067 36.2023 12.7345 36.1992 12.7639C36.1976 12.7793 36.1945 12.7948 36.1945 12.8118V30.3162L27.8491 21.9707C27.8104 21.932 27.7686 21.898 27.7238 21.8686C27.7052 21.8562 27.6836 21.847 27.6635 21.8362C27.6372 21.8222 27.6125 21.8068 27.5846 21.7944C27.5583 21.7836 27.5305 21.7774 27.5042 21.7697C27.481 21.7635 27.4578 21.7542 27.4346 21.7496C27.3821 21.7387 27.3295 21.7341 27.2754 21.7341C27.2228 21.7341 27.1687 21.7403 27.1161 21.7496C27.0914 21.7542 27.0697 21.7635 27.045 21.7697C27.0171 21.7774 26.9908 21.7836 26.9646 21.7944C26.9367 21.8052 26.912 21.8222 26.8857 21.8362C26.8656 21.847 26.8455 21.8562 26.8254 21.8686C26.7805 21.898 26.7388 21.932 26.7001 21.9707L18.3546 30.3162V12.8118C18.3546 12.7948 18.35 12.7793 18.35 12.7639C18.3485 12.7345 18.3469 12.7067 18.3407 12.6773C18.3361 12.651 18.3299 12.6263 18.3237 12.6015C18.3175 12.5768 18.3098 12.552 18.3005 12.5273C18.2912 12.5026 18.2804 12.4778 18.268 12.4546C18.2572 12.4314 18.2448 12.4098 18.2309 12.3866C18.217 12.3649 18.2016 12.3433 18.1861 12.3232C18.1706 12.3015 18.1536 12.2814 18.1351 12.2613C18.1181 12.2428 18.0979 12.2242 18.0794 12.2072C18.0593 12.1902 18.0407 12.1732 18.0191 12.1577C17.9959 12.1407 17.9712 12.1268 17.9464 12.1113C17.9325 12.1036 17.9201 12.0928 17.9047 12.085C17.8985 12.082 17.8907 12.0804 17.8846 12.0773C17.8459 12.0588 17.8057 12.0464 17.7655 12.034C17.7485 12.0294 17.733 12.0216 17.716 12.0186C17.6681 12.0077 17.6201 12.0031 17.5691 12.0015C17.5614 12.0031 17.5521 12 17.5444 12C17.5413 12 17.5397 12.0015 17.5382 12.0015C17.4717 12.0015 17.4083 12.0124 17.348 12.0278C17.331 12.0325 17.314 12.0387 17.297 12.0433C17.2475 12.0588 17.1995 12.0804 17.1547 12.1051C17.1408 12.1129 17.1269 12.1191 17.1129 12.1283C17.0573 12.1639 17.0062 12.2041 16.9614 12.2521C16.9521 12.2613 16.9444 12.2737 16.9351 12.283C16.8965 12.3263 16.864 12.3742 16.8362 12.4252C16.8315 12.4345 16.8238 12.4407 16.8191 12.4484L7.08659 31.9104C7.0835 31.9182 7.08195 31.9243 7.07886 31.9321C7.06649 31.9584 7.05721 31.9878 7.04639 32.0156C7.03866 32.0388 7.03093 32.062 7.02474 32.0867ZM17.2073 33.0841L23.1668 39.0436L11.2477 33.0841H17.2073ZM37.3404 33.0841H43.2999L31.3808 39.0436L37.3404 33.0841ZM37.8151 31.462V16.2462L45.423 31.462H37.8151ZM28.0841 40.0456V24.4989L35.8574 32.2723L28.0841 40.0456ZM26.4635 40.0456L18.6902 32.2723L26.4635 24.4989V40.0456ZM9.12465 31.462L16.7325 16.2462V31.462H9.12465Z" fill="#A3EC26"/>
</svg>
