<svg width="54" height="54" viewBox="0 0 54 54" fill="none" xmlns="http://www.w3.org/2000/svg">
<circle cx="27" cy="27" r="27" fill="white"/>
<path d="M30.1255 6.33496C18.4364 6.33496 8.9491 15.8109 8.9491 27.5C8.9491 39.1891 18.4364 48.665 30.1255 48.665V42.9975H30.125C21.5622 42.9975 14.6212 36.0564 14.6212 27.4939C14.6212 18.9314 21.5625 11.9902 30.125 11.9902H30.1255V6.33496Z" fill="#5F73F4"/>
<path d="M30.1254 17.578H30.1249C24.6569 17.578 20.209 22.0266 20.209 27.4939C20.209 32.9612 24.6572 37.4098 30.1249 37.4098H30.1254V17.578Z" fill="#5F73F4"/>
<path fill-rule="evenodd" clip-rule="evenodd" d="M30.1255 42.9976C36.0288 42.9974 41.1608 39.6976 43.7793 34.8424L38.8547 32.1925C37.1775 35.296 33.8929 37.4097 30.1255 37.4099V42.9976ZM30.1255 17.578C33.8929 17.5783 37.1777 19.6919 38.855 22.7956L43.7802 20.1455C41.1606 15.2903 36.0286 11.9904 30.1255 11.9902V17.578Z" fill="#141D29"/>
</svg>
